<?xml version="1.0" standalone="no"?>
<!DOCTYPE svg PUBLIC "-//W3C//DTD SVG 20010904//EN"
 "http://www.w3.org/TR/2001/REC-SVG-20010904/DTD/svg10.dtd">
<svg version="1.0" xmlns="http://www.w3.org/2000/svg"
 width="1710.000000pt" height="1710.000000pt" viewBox="0 0 1710.000000 1710.000000"
 preserveAspectRatio="xMidYMid meet">
<metadata>
Created by potrace 1.11, written by Peter Selinger 2001-2013
</metadata>
<g transform="translate(0.000000,1710.000000) scale(0.100000,-0.100000)"
fill="#000000" stroke="none">
<path d="M0 8550 l0 -8550 8550 0 8550 0 0 8550 0 8550 -8550 0 -8550 0 0
-8550z m7030 2825 l0 -755 85 0 c79 0 87 2 117 29 l33 29 3 726 2 726 200 0
200 0 0 -677 c-1 -744 -3 -779 -59 -898 -56 -120 -160 -204 -297 -239 -47 -12
-112 -16 -263 -16 l-201 0 0 41 0 40 -32 -25 c-64 -48 -121 -56 -380 -56
l-238 0 0 57 0 57 -27 -26 c-84 -78 -148 -88 -575 -88 l-348 0 0 56 0 56 -39
-31 c-22 -17 -61 -41 -88 -54 -48 -22 -53 -22 -600 -25 l-553 -3 0 67 0 66
-39 -35 c-93 -84 -158 -97 -493 -97 l-258 0 0 67 0 67 -37 -36 c-49 -46 -104
-73 -178 -87 -37 -7 -226 -11 -507 -11 l-448 0 0 40 c0 42 -9 50 -29 26 -6 -8
-35 -24 -64 -37 -45 -21 -68 -24 -177 -24 -123 0 -126 0 -188 34 -165 90 -272
305 -272 548 0 173 58 313 179 433 137 135 242 178 432 179 238 2 373 -69 453
-238 l31 -66 3 -288 3 -288 207 3 c234 3 276 14 323 79 l24 34 -4 373 -3 372
211 0 211 0 0 -430 0 -430 98 0 c159 0 238 36 262 121 6 19 10 186 10 386 l0
353 205 0 205 0 0 -430 0 -430 206 0 207 0 -47 50 c-26 28 -62 81 -79 118 -30
62 -32 75 -32 172 0 122 15 176 75 269 71 110 170 186 300 232 53 19 87 23
180 23 118 0 175 -11 261 -55 61 -31 146 -116 176 -177 l28 -57 3 -288 3 -288
212 3 c197 3 215 5 259 26 86 42 83 26 86 455 l3 377 209 0 210 0 0 -430 0
-430 91 0 c87 0 92 1 120 29 l29 29 0 726 0 726 200 0 200 0 0 -755z m-5250
635 c41 -11 94 -61 109 -103 26 -69 -1 -155 -61 -198 -39 -28 -151 -39 -198
-19 -41 17 -87 72 -100 120 -36 134 99 242 250 200z m428 -4 c130 -68 128
-248 -2 -307 -130 -59 -276 24 -276 157 0 61 46 131 100 153 38 15 147 13 178
-3z m3630 -30 c83 -43 113 -164 60 -243 -34 -52 -87 -77 -164 -77 -71 0 -117
22 -151 73 -86 127 11 280 168 268 31 -3 70 -12 87 -21z m399 8 c19 -9 46 -33
61 -52 23 -30 27 -45 27 -101 0 -54 -5 -72 -24 -100 -50 -69 -176 -93 -256
-48 -58 33 -85 78 -85 144 0 77 37 137 100 162 40 16 138 13 177 -5z m-2450
-15 c122 -59 123 -235 3 -297 -58 -30 -164 -28 -207 4 -50 37 -73 82 -73 141
0 77 37 137 100 162 44 17 130 13 177 -10z m913 -1 c117 -59 119 -229 5 -296
-34 -19 -52 -22 -111 -20 -59 3 -77 8 -107 31 -49 37 -67 75 -67 137 0 74 38
134 100 159 46 18 132 13 180 -11z m416 -4 c48 -35 67 -70 72 -128 9 -107 -70
-186 -184 -186 -109 1 -176 61 -182 165 -3 50 0 66 20 95 13 19 39 45 58 58
31 21 44 23 112 20 58 -2 83 -8 104 -24z m11071 -2411 c-2 -1316 -4 -1456 -20
-1540 -85 -457 -338 -726 -777 -824 -69 -15 -126 -19 -311 -19 l-226 0 -12
-52 c-70 -312 -397 -642 -746 -752 -176 -56 -519 -106 -731 -106 l-61 0 -312
297 c-171 163 -310 298 -307 300 2 2 202 30 444 63 447 60 523 74 623 115 49
19 79 37 197 117 24 16 8 17 -289 20 l-314 4 -95 33 c-289 101 -479 265 -595
515 -45 96 -68 266 -68 511 0 239 24 370 101 546 122 280 453 566 758 654 269
78 593 69 884 -25 117 -38 196 -88 287 -183 120 -124 187 -253 224 -432 17
-80 19 -140 19 -523 l0 -433 168 3 c168 3 169 3 217 33 35 21 56 45 74 80 l26
49 3 1498 2 1498 420 0 421 0 -4 -1447z m-7177 -138 l0 -1575 1200 0 c1310 0
1262 -2 1276 55 10 41 -2 230 -20 313 -42 191 -132 368 -251 488 -133 135
-255 192 -495 233 -147 25 -190 26 -306 6 -265 -47 -471 -158 -836 -451 l-58
-46 0 449 0 449 52 38 c118 88 315 175 498 220 182 44 326 59 550 60 520 0
832 -116 1141 -423 286 -285 429 -575 495 -1006 23 -155 16 -465 -15 -580 -63
-238 -193 -374 -431 -447 l-75 -23 -1792 -3 -1793 -2 0 1910 0 1910 430 0 430
0 0 -1575z m-6210 780 c104 -54 121 -196 34 -276 -80 -73 -233 -58 -289 28
-64 97 -12 236 99 262 48 11 120 5 156 -14z m390 -7 c52 -27 78 -60 90 -114
12 -49 -2 -103 -36 -144 -46 -54 -110 -74 -190 -59 -143 27 -193 192 -87 292
55 51 150 62 223 25z m1055 -378 c384 -72 443 -88 560 -145 202 -98 327 -248
388 -464 21 -73 21 -97 25 -720 l3 -644 132 6 c155 6 247 30 290 75 23 24 49
102 162 494 140 486 181 610 248 743 158 316 360 459 715 506 109 15 392 6
520 -16 229 -38 466 -231 553 -450 l24 -60 3 -635 c3 -720 3 -717 -73 -875
-79 -163 -195 -278 -361 -356 -254 -120 -658 -131 -892 -24 -80 37 -141 85
-217 173 -38 42 -71 78 -74 79 -3 1 -19 -26 -36 -59 -37 -76 -124 -165 -198
-201 -127 -62 -111 -61 -824 -65 l-653 -3 0 275 0 276 -72 -76 c-203 -213
-479 -360 -808 -428 -323 -68 -613 -69 -930 -5 -232 47 -481 152 -640 269
-292 217 -511 553 -611 937 -79 304 -59 734 47 1004 l26 66 201 6 c216 7 697
9 697 3 0 -2 -21 -34 -46 -72 -124 -184 -174 -365 -174 -624 0 -161 21 -251
94 -406 81 -171 179 -288 320 -382 153 -103 365 -160 546 -148 182 12 330 55
525 151 207 102 342 223 486 436 85 127 117 194 136 284 13 67 14 89 4 137
-22 104 -100 178 -226 217 -33 10 -149 33 -258 51 -151 26 -197 36 -193 47 3
7 55 166 116 353 94 286 114 340 128 336 9 -3 161 -32 337 -66z m-591 -2840
c88 -28 171 -103 212 -192 24 -54 28 -76 28 -148 1 -71 -4 -94 -26 -142 -71
-153 -207 -227 -398 -216 -151 9 -261 79 -327 208 -25 49 -28 66 -28 150 0 82
4 103 27 152 29 62 97 136 149 164 93 48 251 58 363 24z m-849 -5 c82 -21 156
-75 204 -146 48 -72 65 -140 58 -230 -8 -94 -43 -164 -118 -233 -81 -76 -158
-100 -297 -94 -122 5 -199 37 -268 110 -71 76 -99 145 -99 248 0 71 5 94 27
142 48 103 142 183 245 207 61 14 184 12 248 -4z m7778 -55 c75 -28 154 -101
192 -177 26 -52 29 -68 30 -153 0 -82 -4 -102 -26 -150 -76 -158 -224 -231
-429 -209 -39 4 -94 19 -123 32 -174 81 -253 298 -173 473 27 59 104 142 156
169 92 48 266 55 373 15z"/>
<path d="M1822 11132 c-73 -26 -122 -69 -157 -137 -28 -54 -30 -67 -30 -159 0
-85 4 -108 23 -143 28 -54 57 -73 110 -73 49 0 86 31 97 81 4 18 12 28 18 26
7 -3 38 -17 70 -31 l57 -26 0 183 c0 100 -5 199 -11 220 -18 67 -87 90 -177
59z"/>
<path d="M4839 11121 c-127 -80 -116 -211 27 -325 28 -23 59 -46 70 -53 18
-10 15 -15 -36 -67 l-54 -56 65 0 c79 0 113 21 129 78 12 45 13 299 1 362 -18
92 -110 120 -202 61z"/>
<path d="M13730 8766 c-102 -30 -221 -107 -282 -183 -114 -143 -157 -408 -88
-542 39 -77 102 -123 224 -160 60 -19 93 -21 277 -21 l209 0 0 384 c0 248 -4
395 -11 413 -14 39 -57 82 -99 100 -48 20 -174 26 -230 9z"/>
<path d="M6900 8957 c-71 -23 -109 -77 -193 -281 -43 -104 -76 -190 -75 -191
2 -1 57 -35 122 -76 66 -41 124 -77 130 -81 6 -4 -7 -31 -33 -68 -55 -78 -81
-146 -81 -211 0 -67 24 -115 73 -147 33 -22 50 -27 95 -25 72 4 136 33 162 75
19 32 20 49 20 478 0 429 -1 446 -20 478 -34 56 -115 76 -200 49z"/>
</g>
</svg>
